<?xml version="1.0" encoding="utf-8" standalone="no"?>
<!DOCTYPE svg PUBLIC "-//W3C//DTD SVG 1.1//EN"
  "http://www.w3.org/Graphics/SVG/1.1/DTD/svg11.dtd">
<!-- Created with matplotlib (http://matplotlib.org/) -->
<svg height="345pt" version="1.1" viewBox="0 0 460 345" width="460pt" xmlns="http://www.w3.org/2000/svg" xmlns:xlink="http://www.w3.org/1999/xlink">
 <defs>
  <style type="text/css">
*{stroke-linecap:butt;stroke-linejoin:round;}
  </style>
 </defs>
 <g id="figure_1">
  <g id="patch_1">
   <path d="M 0 345.6 
L 460.8 345.6 
L 460.8 0 
L 0 0 
z
" style="fill:#ffffff;"/>
  </g>
  <g id="axes_1">
   <g id="patch_2">
    <path d="M 57.6 307.584 
L 414.72 307.584 
L 414.72 41.472 
L 57.6 41.472 
z
" style="fill:#ffffff;"/>
   </g>
   <g id="matplotlib.axis_1">
    <g id="xtick_1">
     <g id="line2d_1">
      <defs>
       <path d="M 0 0 
L 0 3.5 
" id="m3e26a49ec8" style="stroke:#000000;stroke-width:0.8;"/>
      </defs>
      <g>
       <use style="stroke:#000000;stroke-width:0.8;" x="73.832727" xlink:href="#m3e26a49ec8" y="307.584"/>
      </g>
     </g>
     <g id="text_1">
      <!-- 0 -->
      <defs>
       <path d="M 31.78125 66.40625 
Q 24.171875 66.40625 20.328125 58.90625 
Q 16.5 51.421875 16.5 36.375 
Q 16.5 21.390625 20.328125 13.890625 
Q 24.171875 6.390625 31.78125 6.390625 
Q 39.453125 6.390625 43.28125 13.890625 
Q 47.125 21.390625 47.125 36.375 
Q 47.125 51.421875 43.28125 58.90625 
Q 39.453125 66.40625 31.78125 66.40625 
M 31.78125 74.21875 
Q 44.046875 74.21875 50.515625 64.515625 
Q 56.984375 54.828125 56.984375 36.375 
Q 56.984375 17.96875 50.515625 8.265625 
Q 44.046875 -1.421875 31.78125 -1.421875 
Q 19.53125 -1.421875 13.0625 8.265625 
Q 6.59375 17.96875 6.59375 36.375 
Q 6.59375 54.828125 13.0625 64.515625 
Q 19.53125 74.21875 31.78125 74.21875 
" id="DejaVuSans-30"/>
      </defs>
      <g transform="translate(70.651477 322.182437)scale(0.1 -0.1)">
       <use xlink:href="#DejaVuSans-30"/>
      </g>
     </g>
    </g>
    <g id="xtick_2">
     <g id="line2d_2">
      <g>
       <use style="stroke:#000000;stroke-width:0.8;" x="138.893758" xlink:href="#m3e26a49ec8" y="307.584"/>
      </g>
     </g>
     <g id="text_2">
      <!-- 5000 -->
      <defs>
       <path d="M 10.796875 72.90625 
L 49.515625 72.90625 
L 49.515625 64.59375 
L 19.828125 64.59375 
L 19.828125 46.734375 
Q 21.96875 47.46875 24.109375 47.828125 
Q 26.265625 48.1875 28.421875 48.1875 
Q 40.625 48.1875 47.75 41.5 
Q 54.890625 34.8125 54.890625 23.390625 
Q 54.890625 11.625 47.5625 5.09375 
Q 40.234375 -1.421875 26.90625 -1.421875 
Q 22.3125 -1.421875 17.546875 -0.640625 
Q 12.796875 0.140625 7.71875 1.703125 
L 7.71875 11.625 
Q 12.109375 9.234375 16.796875 8.0625 
Q 21.484375 6.890625 26.703125 6.890625 
Q 35.15625 6.890625 40.078125 11.328125 
Q 45.015625 15.765625 45.015625 23.390625 
Q 45.015625 31 40.078125 35.4375 
Q 35.15625 39.890625 26.703125 39.890625 
Q 22.75 39.890625 18.8125 39.015625 
Q 14.890625 38.140625 10.796875 36.28125 
z
" id="DejaVuSans-35"/>
      </defs>
      <g transform="translate(126.168758 322.182437)scale(0.1 -0.1)">
       <use xlink:href="#DejaVuSans-35"/>
       <use x="63.623047" xlink:href="#DejaVuSans-30"/>
       <use x="127.246094" xlink:href="#DejaVuSans-30"/>
       <use x="190.869141" xlink:href="#DejaVuSans-30"/>
      </g>
     </g>
    </g>
    <g id="xtick_3">
     <g id="line2d_3">
      <g>
       <use style="stroke:#000000;stroke-width:0.8;" x="203.95479" xlink:href="#m3e26a49ec8" y="307.584"/>
      </g>
     </g>
     <g id="text_3">
      <!-- 10000 -->
      <defs>
       <path d="M 12.40625 8.296875 
L 28.515625 8.296875 
L 28.515625 63.921875 
L 10.984375 60.40625 
L 10.984375 69.390625 
L 28.421875 72.90625 
L 38.28125 72.90625 
L 38.28125 8.296875 
L 54.390625 8.296875 
L 54.390625 0 
L 12.40625 0 
z
" id="DejaVuSans-31"/>
      </defs>
      <g transform="translate(188.04854 322.182437)scale(0.1 -0.1)">
       <use xlink:href="#DejaVuSans-31"/>
       <use x="63.623047" xlink:href="#DejaVuSans-30"/>
       <use x="127.246094" xlink:href="#DejaVuSans-30"/>
       <use x="190.869141" xlink:href="#DejaVuSans-30"/>
       <use x="254.492188" xlink:href="#DejaVuSans-30"/>
      </g>
     </g>
    </g>
    <g id="xtick_4">
     <g id="line2d_4">
      <g>
       <use style="stroke:#000000;stroke-width:0.8;" x="269.015821" xlink:href="#m3e26a49ec8" y="307.584"/>
      </g>
     </g>
     <g id="text_4">
      <!-- 15000 -->
      <g transform="translate(253.109571 322.182437)scale(0.1 -0.1)">
       <use xlink:href="#DejaVuSans-31"/>
       <use x="63.623047" xlink:href="#DejaVuSans-35"/>
       <use x="127.246094" xlink:href="#DejaVuSans-30"/>
       <use x="190.869141" xlink:href="#DejaVuSans-30"/>
       <use x="254.492188" xlink:href="#DejaVuSans-30"/>
      </g>
     </g>
    </g>
    <g id="xtick_5">
     <g id="line2d_5">
      <g>
       <use style="stroke:#000000;stroke-width:0.8;" x="334.076852" xlink:href="#m3e26a49ec8" y="307.584"/>
      </g>
     </g>
     <g id="text_5">
      <!-- 20000 -->
      <defs>
       <path d="M 19.1875 8.296875 
L 53.609375 8.296875 
L 53.609375 0 
L 7.328125 0 
L 7.328125 8.296875 
Q 12.9375 14.109375 22.625 23.890625 
Q 32.328125 33.6875 34.8125 36.53125 
Q 39.546875 41.84375 41.421875 45.53125 
Q 43.3125 49.21875 43.3125 52.78125 
Q 43.3125 58.59375 39.234375 62.25 
Q 35.15625 65.921875 28.609375 65.921875 
Q 23.96875 65.921875 18.8125 64.3125 
Q 13.671875 62.703125 7.8125 59.421875 
L 7.8125 69.390625 
Q 13.765625 71.78125 18.9375 73 
Q 24.125 74.21875 28.421875 74.21875 
Q 39.75 74.21875 46.484375 68.546875 
Q 53.21875 62.890625 53.21875 53.421875 
Q 53.21875 48.921875 51.53125 44.890625 
Q 49.859375 40.875 45.40625 35.40625 
Q 44.1875 33.984375 37.640625 27.21875 
Q 31.109375 20.453125 19.1875 8.296875 
" id="DejaVuSans-32"/>
      </defs>
      <g transform="translate(318.170602 322.182437)scale(0.1 -0.1)">
       <use xlink:href="#DejaVuSans-32"/>
       <use x="63.623047" xlink:href="#DejaVuSans-30"/>
       <use x="127.246094" xlink:href="#DejaVuSans-30"/>
       <use x="190.869141" xlink:href="#DejaVuSans-30"/>
       <use x="254.492188" xlink:href="#DejaVuSans-30"/>
      </g>
     </g>
    </g>
    <g id="xtick_6">
     <g id="line2d_6">
      <g>
       <use style="stroke:#000000;stroke-width:0.8;" x="399.137883" xlink:href="#m3e26a49ec8" y="307.584"/>
      </g>
     </g>
     <g id="text_6">
      <!-- 25000 -->
      <g transform="translate(383.231633 322.182437)scale(0.1 -0.1)">
       <use xlink:href="#DejaVuSans-32"/>
       <use x="63.623047" xlink:href="#DejaVuSans-35"/>
       <use x="127.246094" xlink:href="#DejaVuSans-30"/>
       <use x="190.869141" xlink:href="#DejaVuSans-30"/>
       <use x="254.492188" xlink:href="#DejaVuSans-30"/>
      </g>
     </g>
    </g>
    <g id="text_7">
     <!-- Array Size -->
     <defs>
      <path d="M 34.1875 63.1875 
L 20.796875 26.90625 
L 47.609375 26.90625 
z
M 28.609375 72.90625 
L 39.796875 72.90625 
L 67.578125 0 
L 57.328125 0 
L 50.6875 18.703125 
L 17.828125 18.703125 
L 11.1875 0 
L 0.78125 0 
z
" id="DejaVuSans-41"/>
      <path d="M 41.109375 46.296875 
Q 39.59375 47.171875 37.8125 47.578125 
Q 36.03125 48 33.890625 48 
Q 26.265625 48 22.1875 43.046875 
Q 18.109375 38.09375 18.109375 28.8125 
L 18.109375 0 
L 9.078125 0 
L 9.078125 54.6875 
L 18.109375 54.6875 
L 18.109375 46.1875 
Q 20.953125 51.171875 25.484375 53.578125 
Q 30.03125 56 36.53125 56 
Q 37.453125 56 38.578125 55.875 
Q 39.703125 55.765625 41.0625 55.515625 
z
" id="DejaVuSans-72"/>
      <path d="M 34.28125 27.484375 
Q 23.390625 27.484375 19.1875 25 
Q 14.984375 22.515625 14.984375 16.5 
Q 14.984375 11.71875 18.140625 8.90625 
Q 21.296875 6.109375 26.703125 6.109375 
Q 34.1875 6.109375 38.703125 11.40625 
Q 43.21875 16.703125 43.21875 25.484375 
L 43.21875 27.484375 
z
M 52.203125 31.203125 
L 52.203125 0 
L 43.21875 0 
L 43.21875 8.296875 
Q 40.140625 3.328125 35.546875 0.953125 
Q 30.953125 -1.421875 24.3125 -1.421875 
Q 15.921875 -1.421875 10.953125 3.296875 
Q 6 8.015625 6 15.921875 
Q 6 25.140625 12.171875 29.828125 
Q 18.359375 34.515625 30.609375 34.515625 
L 43.21875 34.515625 
L 43.21875 35.40625 
Q 43.21875 41.609375 39.140625 45 
Q 35.0625 48.390625 27.6875 48.390625 
Q 23 48.390625 18.546875 47.265625 
Q 14.109375 46.140625 10.015625 43.890625 
L 10.015625 52.203125 
Q 14.9375 54.109375 19.578125 55.046875 
Q 24.21875 56 28.609375 56 
Q 40.484375 56 46.34375 49.84375 
Q 52.203125 43.703125 52.203125 31.203125 
" id="DejaVuSans-61"/>
      <path d="M 32.171875 -5.078125 
Q 28.375 -14.84375 24.75 -17.8125 
Q 21.140625 -20.796875 15.09375 -20.796875 
L 7.90625 -20.796875 
L 7.90625 -13.28125 
L 13.1875 -13.28125 
Q 16.890625 -13.28125 18.9375 -11.515625 
Q 21 -9.765625 23.484375 -3.21875 
L 25.09375 0.875 
L 2.984375 54.6875 
L 12.5 54.6875 
L 29.59375 11.921875 
L 46.6875 54.6875 
L 56.203125 54.6875 
z
" id="DejaVuSans-79"/>
      <path id="DejaVuSans-20"/>
      <path d="M 53.515625 70.515625 
L 53.515625 60.890625 
Q 47.90625 63.578125 42.921875 64.890625 
Q 37.9375 66.21875 33.296875 66.21875 
Q 25.25 66.21875 20.875 63.09375 
Q 16.5 59.96875 16.5 54.203125 
Q 16.5 49.359375 19.40625 46.890625 
Q 22.3125 44.4375 30.421875 42.921875 
L 36.375 41.703125 
Q 47.40625 39.59375 52.65625 34.296875 
Q 57.90625 29 57.90625 20.125 
Q 57.90625 9.515625 50.796875 4.046875 
Q 43.703125 -1.421875 29.984375 -1.421875 
Q 24.8125 -1.421875 18.96875 -0.25 
Q 13.140625 0.921875 6.890625 3.21875 
L 6.890625 13.375 
Q 12.890625 10.015625 18.65625 8.296875 
Q 24.421875 6.59375 29.984375 6.59375 
Q 38.421875 6.59375 43.015625 9.90625 
Q 47.609375 13.234375 47.609375 19.390625 
Q 47.609375 24.75 44.3125 27.78125 
Q 41.015625 30.8125 33.5 32.328125 
L 27.484375 33.5 
Q 16.453125 35.6875 11.515625 40.375 
Q 6.59375 45.0625 6.59375 53.421875 
Q 6.59375 63.09375 13.40625 68.65625 
Q 20.21875 74.21875 32.171875 74.21875 
Q 37.3125 74.21875 42.625 73.28125 
Q 47.953125 72.359375 53.515625 70.515625 
" id="DejaVuSans-53"/>
      <path d="M 9.421875 54.6875 
L 18.40625 54.6875 
L 18.40625 0 
L 9.421875 0 
z
M 9.421875 75.984375 
L 18.40625 75.984375 
L 18.40625 64.59375 
L 9.421875 64.59375 
z
" id="DejaVuSans-69"/>
      <path d="M 5.515625 54.6875 
L 48.1875 54.6875 
L 48.1875 46.484375 
L 14.40625 7.171875 
L 48.1875 7.171875 
L 48.1875 0 
L 4.296875 0 
L 4.296875 8.203125 
L 38.09375 47.515625 
L 5.515625 47.515625 
z
" id="DejaVuSans-7a"/>
      <path d="M 56.203125 29.59375 
L 56.203125 25.203125 
L 14.890625 25.203125 
Q 15.484375 15.921875 20.484375 11.0625 
Q 25.484375 6.203125 34.421875 6.203125 
Q 39.59375 6.203125 44.453125 7.46875 
Q 49.3125 8.734375 54.109375 11.28125 
L 54.109375 2.78125 
Q 49.265625 0.734375 44.1875 -0.34375 
Q 39.109375 -1.421875 33.890625 -1.421875 
Q 20.796875 -1.421875 13.15625 6.1875 
Q 5.515625 13.8125 5.515625 26.8125 
Q 5.515625 40.234375 12.765625 48.109375 
Q 20.015625 56 32.328125 56 
Q 43.359375 56 49.78125 48.890625 
Q 56.203125 41.796875 56.203125 29.59375 
M 47.21875 32.234375 
Q 47.125 39.59375 43.09375 43.984375 
Q 39.0625 48.390625 32.421875 48.390625 
Q 24.90625 48.390625 20.390625 44.140625 
Q 15.875 39.890625 15.1875 32.171875 
z
" id="DejaVuSans-65"/>
     </defs>
     <g transform="translate(210.752969 335.860562)scale(0.1 -0.1)">
      <use xlink:href="#DejaVuSans-41"/>
      <use x="68.408203" xlink:href="#DejaVuSans-72"/>
      <use x="109.505859" xlink:href="#DejaVuSans-72"/>
      <use x="150.619141" xlink:href="#DejaVuSans-61"/>
      <use x="211.898438" xlink:href="#DejaVuSans-79"/>
      <use x="271.078125" xlink:href="#DejaVuSans-20"/>
      <use x="302.865234" xlink:href="#DejaVuSans-53"/>
      <use x="366.341797" xlink:href="#DejaVuSans-69"/>
      <use x="394.125" xlink:href="#DejaVuSans-7a"/>
      <use x="446.615234" xlink:href="#DejaVuSans-65"/>
     </g>
    </g>
   </g>
   <g id="matplotlib.axis_2">
    <g id="ytick_1">
     <g id="line2d_7">
      <defs>
       <path d="M 0 0 
L -3.5 0 
" id="m188a140b55" style="stroke:#000000;stroke-width:0.8;"/>
      </defs>
      <g>
       <use style="stroke:#000000;stroke-width:0.8;" x="57.6" xlink:href="#m188a140b55" y="275.246551"/>
      </g>
     </g>
     <g id="text_8">
      <!-- 50 -->
      <g transform="translate(37.875 279.04577)scale(0.1 -0.1)">
       <use xlink:href="#DejaVuSans-35"/>
       <use x="63.623047" xlink:href="#DejaVuSans-30"/>
      </g>
     </g>
    </g>
    <g id="ytick_2">
     <g id="line2d_8">
      <g>
       <use style="stroke:#000000;stroke-width:0.8;" x="57.6" xlink:href="#m188a140b55" y="224.64552"/>
      </g>
     </g>
     <g id="text_9">
      <!-- 100 -->
      <g transform="translate(31.5125 228.444739)scale(0.1 -0.1)">
       <use xlink:href="#DejaVuSans-31"/>
       <use x="63.623047" xlink:href="#DejaVuSans-30"/>
       <use x="127.246094" xlink:href="#DejaVuSans-30"/>
      </g>
     </g>
    </g>
    <g id="ytick_3">
     <g id="line2d_9">
      <g>
       <use style="stroke:#000000;stroke-width:0.8;" x="57.6" xlink:href="#m188a140b55" y="174.04449"/>
      </g>
     </g>
     <g id="text_10">
      <!-- 150 -->
      <g transform="translate(31.5125 177.843709)scale(0.1 -0.1)">
       <use xlink:href="#DejaVuSans-31"/>
       <use x="63.623047" xlink:href="#DejaVuSans-35"/>
       <use x="127.246094" xlink:href="#DejaVuSans-30"/>
      </g>
     </g>
    </g>
    <g id="ytick_4">
     <g id="line2d_10">
      <g>
       <use style="stroke:#000000;stroke-width:0.8;" x="57.6" xlink:href="#m188a140b55" y="123.443459"/>
      </g>
     </g>
     <g id="text_11">
      <!-- 200 -->
      <g transform="translate(31.5125 127.242678)scale(0.1 -0.1)">
       <use xlink:href="#DejaVuSans-32"/>
       <use x="63.623047" xlink:href="#DejaVuSans-30"/>
       <use x="127.246094" xlink:href="#DejaVuSans-30"/>
      </g>
     </g>
    </g>
    <g id="ytick_5">
     <g id="line2d_11">
      <g>
       <use style="stroke:#000000;stroke-width:0.8;" x="57.6" xlink:href="#m188a140b55" y="72.842429"/>
      </g>
     </g>
     <g id="text_12">
      <!-- 250 -->
      <g transform="translate(31.5125 76.641647)scale(0.1 -0.1)">
       <use xlink:href="#DejaVuSans-32"/>
       <use x="63.623047" xlink:href="#DejaVuSans-35"/>
       <use x="127.246094" xlink:href="#DejaVuSans-30"/>
      </g>
     </g>
    </g>
    <g id="text_13">
     <!-- Latency -->
     <defs>
      <path d="M 9.8125 72.90625 
L 19.671875 72.90625 
L 19.671875 8.296875 
L 55.171875 8.296875 
L 55.171875 0 
L 9.8125 0 
z
" id="DejaVuSans-4c"/>
      <path d="M 18.3125 70.21875 
L 18.3125 54.6875 
L 36.8125 54.6875 
L 36.8125 47.703125 
L 18.3125 47.703125 
L 18.3125 18.015625 
Q 18.3125 11.328125 20.140625 9.421875 
Q 21.96875 7.515625 27.59375 7.515625 
L 36.8125 7.515625 
L 36.8125 0 
L 27.59375 0 
Q 17.1875 0 13.234375 3.875 
Q 9.28125 7.765625 9.28125 18.015625 
L 9.28125 47.703125 
L 2.6875 47.703125 
L 2.6875 54.6875 
L 9.28125 54.6875 
L 9.28125 70.21875 
z
" id="DejaVuSans-74"/>
      <path d="M 54.890625 33.015625 
L 54.890625 0 
L 45.90625 0 
L 45.90625 32.71875 
Q 45.90625 40.484375 42.875 44.328125 
Q 39.84375 48.1875 33.796875 48.1875 
Q 26.515625 48.1875 22.3125 43.546875 
Q 18.109375 38.921875 18.109375 30.90625 
L 18.109375 0 
L 9.078125 0 
L 9.078125 54.6875 
L 18.109375 54.6875 
L 18.109375 46.1875 
Q 21.34375 51.125 25.703125 53.5625 
Q 30.078125 56 35.796875 56 
Q 45.21875 56 50.046875 50.171875 
Q 54.890625 44.34375 54.890625 33.015625 
" id="DejaVuSans-6e"/>
      <path d="M 48.78125 52.59375 
L 48.78125 44.1875 
Q 44.96875 46.296875 41.140625 47.34375 
Q 37.3125 48.390625 33.40625 48.390625 
Q 24.65625 48.390625 19.8125 42.84375 
Q 14.984375 37.3125 14.984375 27.296875 
Q 14.984375 17.28125 19.8125 11.734375 
Q 24.65625 6.203125 33.40625 6.203125 
Q 37.3125 6.203125 41.140625 7.25 
Q 44.96875 8.296875 48.78125 10.40625 
L 48.78125 2.09375 
Q 45.015625 0.34375 40.984375 -0.53125 
Q 36.96875 -1.421875 32.421875 -1.421875 
Q 20.0625 -1.421875 12.78125 6.34375 
Q 5.515625 14.109375 5.515625 27.296875 
Q 5.515625 40.671875 12.859375 48.328125 
Q 20.21875 56 33.015625 56 
Q 37.15625 56 41.109375 55.140625 
Q 45.0625 54.296875 48.78125 52.59375 
" id="DejaVuSans-63"/>
     </defs>
     <g transform="translate(25.432812 194.292062)rotate(-90)scale(0.1 -0.1)">
      <use xlink:href="#DejaVuSans-4c"/>
      <use x="55.712891" xlink:href="#DejaVuSans-61"/>
      <use x="116.992188" xlink:href="#DejaVuSans-74"/>
      <use x="156.201172" xlink:href="#DejaVuSans-65"/>
      <use x="217.724609" xlink:href="#DejaVuSans-6e"/>
      <use x="281.103516" xlink:href="#DejaVuSans-63"/>
      <use x="336.083984" xlink:href="#DejaVuSans-79"/>
     </g>
    </g>
   </g>
   <g id="line2d_12">
    <path clip-path="url(#pce03b03743)" d="M 73.832727 267.755205 
L 74.483338 268.744197 
L 75.133948 269.11965 
L 75.784558 269.218708 
L 76.435169 268.609015 
L 77.085779 268.342746 
L 77.736389 268.232885 
L 78.386999 268.806699 
L 79.03761 267.284186 
L 80.33883 262.361542 
L 80.989441 265.048028 
L 81.640051 264.857685 
L 82.290661 263.14586 
L 82.941272 266.370312 
L 83.591882 263.329043 
L 84.242492 264.339892 
L 84.893103 265.973398 
L 86.194323 261.368623 
L 86.844934 264.635588 
L 87.495544 257.490484 
L 88.146154 257.64706 
L 89.447375 251.947905 
L 90.097985 259.063466 
L 90.748595 258.369488 
L 91.399206 259.056807 
L 92.049816 257.503952 
L 92.700426 261.514938 
L 93.351037 258.400135 
L 94.001647 261.941086 
L 94.652257 260.221361 
L 95.302868 261.489784 
L 95.953478 259.047023 
L 96.604088 258.761957 
L 97.254698 260.564406 
L 97.905309 257.03576 
L 98.555919 260.858318 
L 99.206529 261.593148 
L 99.85714 260.707025 
L 100.50775 253.890602 
L 101.15836 254.03549 
L 101.808971 252.996565 
L 102.459581 257.861175 
L 103.110191 256.035654 
L 103.760802 258.291687 
L 104.411412 251.716584 
L 105.062022 259.364521 
L 105.712633 251.772985 
L 106.363243 249.343915 
L 107.013853 258.164678 
L 107.664463 260.644396 
L 108.315074 257.551538 
L 108.965684 249.711227 
L 109.616294 259.705382 
L 110.266905 259.047508 
L 110.917515 260.872317 
L 111.568125 260.23878 
L 112.869346 256.103208 
L 113.519956 259.440116 
L 114.170567 259.165077 
L 114.821177 258.036812 
L 115.471787 259.355535 
L 116.122398 256.772118 
L 116.773008 255.141626 
L 117.423618 250.452816 
L 118.074228 254.275864 
L 118.724839 255.262274 
L 119.375449 256.484022 
L 120.026059 254.405526 
L 120.67667 253.642446 
L 121.32728 255.813803 
L 122.628501 251.549547 
L 123.929721 246.281053 
L 124.580332 256.91777 
L 125.230942 255.64 
L 126.532163 255.006326 
L 127.182773 256.26819 
L 128.483993 249.510242 
L 129.134604 252.089324 
L 130.435824 254.956215 
L 131.086435 252.781724 
L 131.737045 256.109418 
L 132.387655 255.61613 
L 133.038266 252.339816 
L 133.688876 252.184246 
L 134.339486 251.601485 
L 135.640707 256.17925 
L 136.291317 255.63522 
L 136.941927 248.723738 
L 137.592538 245.406079 
L 138.243148 254.937291 
L 138.893758 250.460698 
L 139.544369 249.699965 
L 140.194979 245.212782 
L 140.845589 223.20908 
L 142.14681 248.288156 
L 142.79742 249.086001 
L 143.448031 251.819875 
L 144.098641 250.215727 
L 144.749251 253.029787 
L 145.399862 249.180894 
L 146.050472 235.522721 
L 146.701082 247.270418 
L 147.351692 253.091183 
L 148.002303 252.79809 
L 148.652913 247.094958 
L 149.303523 248.352404 
L 149.954134 245.413941 
L 150.604744 244.166163 
L 151.255354 240.23377 
L 151.905965 248.858674 
L 152.556575 244.69011 
L 153.207185 250.700955 
L 153.857796 248.776068 
L 154.508406 249.582122 
L 155.159016 248.543385 
L 155.809627 249.702178 
L 156.460237 250.252063 
L 157.110847 248.516353 
L 157.761457 251.346532 
L 158.412068 249.735876 
L 159.062678 247.610421 
L 159.713288 239.371554 
L 160.363899 246.763714 
L 161.014509 246.977647 
L 161.665119 248.87646 
L 162.31573 247.115412 
L 162.96634 248.087541 
L 163.61695 248.517692 
L 164.267561 246.459548 
L 164.918171 247.064057 
L 165.568781 238.66049 
L 166.219392 243.776932 
L 166.870002 241.995794 
L 167.520612 245.173104 
L 168.171222 239.796766 
L 168.821833 246.699523 
L 169.472443 247.212501 
L 170.123053 244.023553 
L 170.773664 248.804589 
L 171.424274 247.825169 
L 172.074884 243.803865 
L 172.725495 249.658804 
L 173.376105 248.99677 
L 174.026715 246.327225 
L 174.677326 248.380205 
L 175.327936 247.905232 
L 175.978546 248.692786 
L 176.629156 247.408807 
L 177.279767 247.129353 
L 177.930377 247.716157 
L 178.580987 245.708256 
L 179.231598 247.086024 
L 179.882208 245.716195 
L 180.532818 246.101323 
L 181.183429 246.678349 
L 181.834039 246.409816 
L 182.484649 246.284072 
L 183.78587 246.91338 
L 184.43648 245.765559 
L 185.087091 246.057672 
L 185.737701 246.528978 
L 186.388311 247.318854 
L 187.038921 245.612322 
L 187.689532 245.68919 
L 188.340142 246.146807 
L 188.990752 245.396868 
L 189.641363 244.20349 
L 190.291973 244.868998 
L 190.942583 246.018313 
L 191.593194 244.183684 
L 192.243804 243.73078 
L 192.894414 245.091189 
L 193.545025 245.157966 
L 194.195635 244.407766 
L 194.846245 243.863905 
L 195.496856 244.283045 
L 196.147466 242.744029 
L 196.798076 243.552703 
L 197.448686 243.925136 
L 198.099297 242.717215 
L 198.749907 242.754513 
L 199.400517 243.561159 
L 200.051128 241.7544 
L 201.352348 242.965167 
L 202.002959 242.106972 
L 202.653569 241.471112 
L 203.304179 242.324608 
L 204.6054 242.60953 
L 205.25601 242.266032 
L 205.906621 242.167417 
L 206.557231 240.135787 
L 207.207841 241.890778 
L 208.509062 241.955579 
L 209.159672 240.194131 
L 209.810282 241.064848 
L 210.460893 240.588057 
L 211.111503 239.726047 
L 211.762113 241.370186 
L 212.412724 241.678508 
L 213.063334 240.602424 
L 213.713944 237.495806 
L 214.364555 239.306229 
L 215.015165 239.987557 
L 215.665775 239.796428 
L 216.316385 238.260348 
L 216.966996 240.566473 
L 217.617606 238.290926 
L 218.268216 239.925319 
L 218.918827 239.371483 
L 219.569437 239.30591 
L 220.220047 239.940444 
L 220.870658 238.114768 
L 221.521268 239.24439 
L 222.171878 238.220212 
L 222.822489 238.54661 
L 224.123709 238.784597 
L 224.77432 238.023958 
L 225.42493 237.726995 
L 226.07554 238.08966 
L 226.72615 236.775001 
L 227.376761 237.995582 
L 228.027371 237.738299 
L 228.677981 235.861984 
L 229.328592 237.033689 
L 229.979202 235.780625 
L 230.629812 237.032544 
L 231.280423 234.815922 
L 231.931033 236.339881 
L 232.581643 236.575638 
L 233.232254 235.766385 
L 233.882864 236.074142 
L 234.533474 235.670868 
L 235.184085 236.11084 
L 235.834695 236.726294 
L 236.485305 236.050968 
L 237.786526 235.748534 
L 238.437136 234.64606 
L 239.087746 231.241351 
L 239.738357 234.428378 
L 240.388967 235.723315 
L 241.039577 234.229287 
L 241.690188 234.749557 
L 242.340798 234.019562 
L 242.991408 234.080162 
L 243.642019 235.53661 
L 244.292629 234.218696 
L 244.943239 233.763908 
L 245.59385 234.973222 
L 246.24446 234.00942 
L 246.89507 234.161372 
L 247.54568 233.631473 
L 248.196291 233.846546 
L 248.846901 233.851573 
L 249.497511 232.08034 
L 250.148122 233.168332 
L 251.449342 232.987981 
L 252.099953 232.495592 
L 252.750563 231.63254 
L 253.401173 232.233957 
L 254.051784 232.313982 
L 254.702394 231.253558 
L 255.353004 231.48072 
L 256.003615 230.054586 
L 256.654225 231.266644 
L 257.304835 231.204804 
L 257.955445 230.735927 
L 258.606056 230.964102 
L 259.256666 230.136201 
L 259.907276 231.233198 
L 260.557887 230.370066 
L 261.208497 231.459617 
L 261.859107 231.096864 
L 262.509718 230.296976 
L 263.160328 228.015119 
L 263.810938 230.932254 
L 265.112159 228.207015 
L 265.762769 229.16357 
L 266.413379 227.547086 
L 267.06399 229.760056 
L 267.7146 228.687285 
L 268.36521 228.519511 
L 269.015821 228.20736 
L 270.317041 229.299913 
L 270.967652 229.587347 
L 271.618262 228.916778 
L 272.919483 228.765342 
L 273.570093 226.816463 
L 274.220703 227.837782 
L 274.871314 226.790069 
L 275.521924 228.171514 
L 276.172534 228.036786 
L 278.124365 225.03696 
L 278.774975 227.393552 
L 279.425586 227.920993 
L 280.076196 225.641791 
L 280.726806 227.685942 
L 281.377417 226.534627 
L 282.028027 227.01636 
L 282.678637 226.628629 
L 283.329248 225.664921 
L 283.979858 226.665624 
L 284.630468 225.996209 
L 285.281079 225.569437 
L 285.931689 225.797964 
L 286.582299 224.537639 
L 287.232909 225.016583 
L 287.88352 226.040887 
L 288.53413 225.255795 
L 289.835351 225.298748 
L 290.485961 223.887154 
L 291.136571 222.932334 
L 291.787182 224.062633 
L 292.437792 224.905936 
L 293.088402 225.379043 
L 293.739013 222.550464 
L 294.389623 223.849213 
L 295.040233 222.816627 
L 296.341454 224.835302 
L 296.992064 220.579233 
L 297.642674 223.24897 
L 298.293285 223.612138 
L 298.943895 223.304062 
L 299.594505 222.227339 
L 300.245116 222.516548 
L 300.895726 223.449784 
L 301.546336 220.150468 
L 302.196947 220.012206 
L 302.847557 218.879745 
L 303.498167 211.528595 
L 304.148778 218.363821 
L 304.799388 219.582913 
L 305.449998 217.37097 
L 306.100608 221.682515 
L 306.751219 221.570439 
L 307.401829 221.120604 
L 308.052439 219.362145 
L 308.70305 219.712073 
L 310.00427 218.053195 
L 310.654881 216.937876 
L 311.305491 219.321842 
L 311.956101 218.838324 
L 312.606712 217.254192 
L 313.257322 216.757572 
L 313.907932 214.726508 
L 314.558543 216.553022 
L 315.209153 217.368768 
L 315.859763 218.85842 
L 316.510373 215.536535 
L 317.160984 217.609724 
L 317.811594 216.458226 
L 318.462204 217.376004 
L 319.112815 219.181 
L 319.763425 214.63142 
L 320.414035 215.589242 
L 321.064646 216.348653 
L 321.715256 215.946013 
L 323.016477 219.908853 
L 323.667087 218.86702 
L 324.317697 218.57707 
L 324.968308 213.203037 
L 325.618918 213.655191 
L 326.269528 214.33051 
L 326.920138 216.020623 
L 327.570749 215.016851 
L 328.221359 214.922076 
L 328.871969 214.243087 
L 329.52258 199.231039 
L 330.17319 206.187651 
L 330.8238 201.136956 
L 331.474411 211.095715 
L 332.775631 212.282064 
L 333.426242 212.328278 
L 334.076852 210.041489 
L 334.727462 210.871931 
L 335.378073 212.060464 
L 336.028683 211.722702 
L 336.679293 211.574387 
L 337.329903 212.283681 
L 337.980514 212.150277 
L 338.631124 210.454014 
L 339.281734 210.672643 
L 339.932345 211.659763 
L 340.582955 211.413586 
L 341.233565 210.052878 
L 341.884176 206.099571 
L 342.534786 211.837731 
L 343.185396 210.994834 
L 343.836007 211.035603 
L 344.486617 210.532957 
L 345.137227 211.755 
L 345.787837 210.792364 
L 346.438448 209.411466 
L 347.089058 208.604899 
L 347.739668 210.636063 
L 348.390279 209.545875 
L 349.040889 207.315071 
L 349.691499 210.269614 
L 350.34211 207.102385 
L 350.99272 208.964565 
L 351.64333 209.962058 
L 352.293941 207.884111 
L 353.595161 209.826362 
L 354.245772 208.567587 
L 354.896382 209.60542 
L 355.546992 208.796008 
L 356.197602 209.048445 
L 356.848213 208.358776 
L 357.498823 208.682276 
L 358.149433 207.948051 
L 358.800044 205.386137 
L 359.450654 207.223496 
L 360.101264 207.277748 
L 360.751875 207.468303 
L 361.402485 208.211991 
L 362.703706 205.918651 
L 363.354316 205.795077 
L 364.004926 204.618771 
L 364.655537 204.824044 
L 365.956757 203.941957 
L 366.607367 204.156567 
L 367.257978 204.770656 
L 367.908588 201.64736 
L 368.559198 201.82079 
L 369.209809 205.060978 
L 369.860419 203.333855 
L 370.511029 203.878043 
L 371.16164 204.953212 
L 371.81225 200.010673 
L 372.46286 202.166764 
L 373.113471 201.957305 
L 373.764081 197.847342 
L 374.414691 199.260495 
L 375.065302 190.089136 
L 375.715912 199.352972 
L 376.366522 172.098309 
L 377.017132 185.167536 
L 377.667743 191.831214 
L 378.318353 186.236536 
L 378.968963 177.555638 
L 379.619574 199.07705 
L 380.270184 199.673573 
L 380.920794 191.329393 
L 381.571405 195.745378 
L 382.222015 193.523881 
L 382.872625 197.529369 
L 383.523236 195.945597 
L 384.173846 181.408974 
L 384.824456 181.977993 
L 385.475066 188.00722 
L 386.125677 187.787779 
L 386.776287 179.472689 
L 387.426897 187.293387 
L 388.077508 185.479623 
L 388.728118 189.470128 
L 389.378728 190.824638 
L 390.029339 190.699944 
L 390.679949 188.920856 
L 391.330559 191.983264 
L 391.98117 192.270216 
L 392.63178 192.317939 
L 393.28239 189.56662 
L 393.933001 182.181177 
L 394.583611 178.995626 
L 395.234221 172.923559 
L 395.884831 193.534912 
L 396.535442 187.537835 
L 397.186052 185.361909 
L 397.836662 187.49588 
L 398.487273 188.12876 
L 398.487273 188.12876 
" style="fill:none;stroke:#1f77b4;stroke-linecap:square;stroke-width:1.5;"/>
   </g>
   <g id="line2d_13">
    <path clip-path="url(#pce03b03743)" d="M 73.832727 295.488 
L 74.483338 294.041165 
L 75.133948 292.743094 
L 75.784558 292.867805 
L 76.435169 292.804071 
L 77.085779 292.026427 
L 77.736389 290.352306 
L 78.386999 287.057192 
L 79.03761 289.742538 
L 79.68822 290.971269 
L 80.33883 289.55729 
L 80.989441 289.606385 
L 81.640051 288.750216 
L 82.290661 288.137755 
L 82.941272 288.334415 
L 83.591882 288.203124 
L 84.242492 287.786154 
L 84.893103 286.84291 
L 85.543713 286.931968 
L 86.194323 286.664482 
L 86.844934 286.205446 
L 87.495544 285.408103 
L 88.146154 284.079515 
L 88.796764 280.98696 
L 89.447375 283.784609 
L 90.097985 283.357329 
L 90.748595 283.439717 
L 91.399206 282.314951 
L 92.049816 281.873285 
L 92.700426 281.214454 
L 93.351037 281.326275 
L 94.001647 281.205553 
L 94.652257 279.212782 
L 95.302868 280.530367 
L 95.953478 279.272835 
L 96.604088 279.678085 
L 97.254698 278.754604 
L 98.555919 278.180765 
L 99.206529 274.86614 
L 99.85714 276.565007 
L 100.50775 277.789141 
L 101.15836 276.673324 
L 101.808971 276.076183 
L 102.459581 276.464457 
L 103.110191 274.126953 
L 103.760802 275.542868 
L 104.411412 273.806339 
L 105.062022 274.598205 
L 105.712633 273.723406 
L 106.363243 273.46334 
L 107.013853 272.894918 
L 108.315074 272.274328 
L 108.965684 272.684421 
L 109.616294 270.812667 
L 110.266905 271.506742 
L 110.917515 270.599558 
L 111.568125 271.113615 
L 112.218736 270.667297 
L 112.869346 269.369427 
L 113.519956 269.498651 
L 114.170567 268.619945 
L 114.821177 269.668009 
L 115.471787 268.167218 
L 116.122398 267.817539 
L 116.773008 267.128188 
L 117.423618 265.136846 
L 118.074228 264.831235 
L 118.724839 266.33327 
L 119.375449 266.678464 
L 120.026059 265.618073 
L 120.67667 265.745126 
L 121.32728 264.984406 
L 121.97789 262.822934 
L 123.929721 264.114975 
L 124.580332 263.719022 
L 125.230942 262.404536 
L 125.881552 262.606491 
L 126.532163 261.319383 
L 127.182773 261.448955 
L 127.833383 261.90205 
L 128.483993 261.175784 
L 129.134604 261.052144 
L 129.785214 261.541228 
L 130.435824 261.101538 
L 131.737045 259.552808 
L 132.387655 259.425319 
L 133.688876 256.68943 
L 134.339486 258.456846 
L 134.990097 257.569931 
L 135.640707 257.098788 
L 136.291317 256.39847 
L 136.941927 256.572014 
L 137.592538 256.215009 
L 138.243148 255.272774 
L 138.893758 255.101341 
L 139.544369 254.774565 
L 140.194979 254.788334 
L 140.845589 253.763871 
L 141.4962 254.183328 
L 142.14681 254.362868 
L 142.79742 253.423962 
L 145.399862 251.831033 
L 146.050472 251.012608 
L 146.701082 251.148023 
L 147.351692 250.632817 
L 148.002303 249.955876 
L 148.652913 249.859213 
L 149.303523 249.452708 
L 149.954134 247.902057 
L 150.604744 247.826548 
L 151.255354 242.966996 
L 151.905965 241.934198 
L 152.556575 239.988032 
L 153.207185 244.570751 
L 153.857796 241.104955 
L 154.508406 241.540416 
L 155.159016 240.082886 
L 155.809627 241.334498 
L 156.460237 241.184505 
L 157.110847 240.280997 
L 157.761457 240.572405 
L 158.412068 239.740596 
L 159.062678 239.227035 
L 159.713288 237.541301 
L 160.363899 238.283095 
L 161.014509 239.379729 
L 161.665119 238.558237 
L 162.31573 238.814913 
L 162.96634 235.888807 
L 163.61695 236.30743 
L 164.267561 233.244879 
L 164.918171 237.615997 
L 165.568781 238.425391 
L 166.870002 237.635531 
L 167.520612 237.726058 
L 168.171222 237.998515 
L 168.821833 235.749486 
L 169.472443 234.315907 
L 170.123053 231.319715 
L 170.773664 233.550991 
L 171.424274 232.996973 
L 172.074884 235.260914 
L 172.725495 233.195018 
L 173.376105 231.531929 
L 174.026715 230.425033 
L 175.327936 232.668517 
L 175.978546 232.503944 
L 176.629156 231.375382 
L 177.279767 230.901419 
L 177.930377 230.997523 
L 178.580987 230.183218 
L 179.231598 231.147788 
L 179.882208 230.500403 
L 180.532818 230.533472 
L 181.183429 230.722616 
L 181.834039 229.51455 
L 182.484649 228.831464 
L 183.13526 227.80148 
L 183.78587 227.912657 
L 184.43648 225.767513 
L 185.087091 225.070773 
L 185.737701 226.072641 
L 186.388311 227.35518 
L 187.038921 224.256665 
L 187.689532 222.72528 
L 188.340142 220.650467 
L 188.990752 216.849248 
L 189.641363 218.787955 
L 190.291973 218.737656 
L 190.942583 214.191465 
L 191.593194 214.247896 
L 192.243804 213.987238 
L 192.894414 215.248931 
L 193.545025 206.250967 
L 194.195635 206.566095 
L 194.846245 211.342894 
L 195.496856 210.797603 
L 196.147466 203.715214 
L 197.448686 212.042682 
L 198.099297 209.913702 
L 198.749907 212.010512 
L 199.400517 212.641791 
L 200.051128 212.313471 
L 200.701738 211.21784 
L 201.352348 211.659857 
L 202.002959 208.616935 
L 202.653569 203.259244 
L 203.304179 203.666879 
L 203.95479 205.658637 
L 204.6054 205.507964 
L 205.25601 207.095903 
L 205.906621 209.403022 
L 206.557231 209.762691 
L 207.207841 206.581105 
L 207.858451 206.331951 
L 208.509062 204.84074 
L 209.159672 205.005047 
L 209.810282 205.847617 
L 210.460893 206.061505 
L 211.762113 201.570438 
L 212.412724 205.165042 
L 213.063334 204.413721 
L 213.713944 205.919209 
L 215.015165 203.442117 
L 215.665775 201.247701 
L 216.316385 201.743193 
L 216.966996 204.555242 
L 217.617606 199.647928 
L 218.268216 200.705226 
L 218.918827 198.676793 
L 219.569437 201.762869 
L 220.220047 192.260649 
L 220.870658 199.114335 
L 221.521268 192.869681 
L 222.171878 191.354141 
L 222.822489 196.281403 
L 223.473099 197.622337 
L 224.123709 197.866566 
L 224.77432 193.681263 
L 225.42493 193.377074 
L 226.07554 192.13657 
L 226.72615 188.109575 
L 227.376761 186.465819 
L 228.027371 191.315604 
L 228.677981 187.344746 
L 229.328592 189.057241 
L 229.979202 192.084958 
L 230.629812 190.57021 
L 231.280423 189.581773 
L 231.931033 191.546925 
L 232.581643 192.197978 
L 233.232254 192.085549 
L 233.882864 190.423601 
L 234.533474 180.804848 
L 235.184085 189.929393 
L 235.834695 186.887442 
L 236.485305 186.008967 
L 237.135915 184.661417 
L 237.786526 182.930684 
L 238.437136 181.537148 
L 239.087746 181.618449 
L 239.738357 179.228633 
L 240.388967 184.688145 
L 241.039577 182.108285 
L 241.690188 185.018132 
L 242.340798 183.193536 
L 242.991408 183.719075 
L 243.642019 182.071513 
L 244.292629 183.502918 
L 244.943239 182.133407 
L 245.59385 180.009519 
L 246.24446 179.746393 
L 246.89507 181.335244 
L 247.54568 179.286379 
L 248.196291 178.546633 
L 248.846901 176.494035 
L 249.497511 176.543165 
L 250.148122 175.561755 
L 251.449342 172.269597 
L 252.099953 173.466955 
L 252.750563 177.027712 
L 253.401173 169.869762 
L 254.051784 169.344106 
L 254.702394 173.024659 
L 255.353004 167.443474 
L 256.003615 167.611124 
L 256.654225 174.176972 
L 257.304835 159.295642 
L 257.955445 170.554479 
L 258.606056 168.89111 
L 259.256666 168.136163 
L 259.907276 168.847906 
L 260.557887 166.675556 
L 261.208497 168.976733 
L 261.859107 168.139514 
L 262.509718 166.936731 
L 263.160328 166.596615 
L 263.810938 162.89336 
L 264.461549 166.580597 
L 265.112159 159.087604 
L 265.762769 163.407904 
L 266.413379 168.771407 
L 267.06399 153.786522 
L 267.7146 150.0919 
L 268.36521 158.434684 
L 269.015821 158.111841 
L 269.666431 160.38656 
L 270.317041 158.577244 
L 270.967652 152.98845 
L 271.618262 158.79791 
L 272.268872 159.293868 
L 272.919483 158.512951 
L 273.570093 156.299602 
L 274.220703 157.237487 
L 274.871314 152.729354 
L 275.521924 150.641093 
L 276.172534 151.303258 
L 276.823144 153.93758 
L 277.473755 152.643 
L 278.124365 155.600477 
L 278.774975 152.38226 
L 279.425586 152.198047 
L 280.076196 153.163867 
L 280.726806 147.198969 
L 281.377417 152.712591 
L 282.028027 152.554838 
L 282.678637 150.02089 
L 283.329248 151.388375 
L 283.979858 131.783318 
L 284.630468 151.349974 
L 285.281079 152.085564 
L 285.931689 147.361572 
L 286.582299 140.08947 
L 287.232909 143.182315 
L 287.88352 135.802221 
L 288.53413 141.027247 
L 289.18474 142.434977 
L 289.835351 141.31825 
L 290.485961 138.295874 
L 291.136571 138.868988 
L 292.437792 121.879923 
L 293.088402 118.421377 
L 293.739013 123.331646 
L 294.389623 125.554489 
L 295.040233 118.2077 
L 295.690844 132.978729 
L 296.341454 136.879165 
L 296.992064 134.874267 
L 297.642674 133.555165 
L 298.293285 133.574278 
L 298.943895 132.648106 
L 299.594505 133.203271 
L 300.245116 128.279099 
L 300.895726 129.521477 
L 301.546336 130.146036 
L 302.196947 127.627201 
L 302.847557 123.579695 
L 303.498167 128.995369 
L 304.148778 129.458403 
L 304.799388 130.676968 
L 305.449998 129.8741 
L 306.100608 120.445773 
L 308.052439 126.606273 
L 308.70305 121.595062 
L 309.35366 119.953771 
L 310.00427 122.490483 
L 310.654881 119.256499 
L 311.305491 123.198596 
L 311.956101 122.387967 
L 312.606712 122.872636 
L 313.257322 118.650302 
L 313.907932 110.398695 
L 314.558543 120.486235 
L 315.209153 117.115652 
L 315.859763 116.184575 
L 316.510373 116.607265 
L 317.160984 114.375301 
L 317.811594 118.522913 
L 318.462204 109.848925 
L 319.112815 115.422751 
L 320.414035 111.51108 
L 321.064646 113.151048 
L 321.715256 115.482941 
L 322.365866 114.680909 
L 323.016477 109.997377 
L 323.667087 109.17875 
L 324.317697 92.924957 
L 324.968308 107.6162 
L 325.618918 106.087076 
L 326.269528 114.168575 
L 326.920138 112.59147 
L 327.570749 107.501749 
L 328.221359 94.274323 
L 328.871969 108.488607 
L 329.52258 109.731092 
L 330.17319 106.426016 
L 330.8238 108.910006 
L 331.474411 98.839552 
L 332.125021 108.362735 
L 332.775631 101.680213 
L 333.426242 97.47166 
L 334.076852 98.099011 
L 334.727462 86.882125 
L 335.378073 104.601525 
L 336.028683 100.096589 
L 336.679293 104.282218 
L 337.329903 101.941626 
L 337.980514 105.252502 
L 338.631124 96.385614 
L 339.281734 101.766065 
L 339.932345 104.239807 
L 340.582955 103.773537 
L 341.233565 104.089242 
L 341.884176 105.136447 
L 342.534786 98.643793 
L 343.185396 100.643093 
L 343.836007 101.686962 
L 344.486617 100.273545 
L 345.137227 94.078063 
L 345.787837 92.139432 
L 346.438448 93.751623 
L 347.089058 92.63911 
L 347.739668 92.224316 
L 348.390279 88.227672 
L 349.040889 98.235583 
L 349.691499 86.507134 
L 350.34211 85.894848 
L 350.99272 89.189618 
L 351.64333 89.084715 
L 352.944551 89.267481 
L 353.595161 87.69316 
L 354.245772 88.482812 
L 354.896382 86.457105 
L 355.546992 88.152472 
L 356.197602 87.515154 
L 356.848213 79.15582 
L 357.498823 83.61824 
L 358.149433 90.34985 
L 358.800044 83.335184 
L 359.450654 70.899868 
L 360.101264 73.689338 
L 360.751875 66.639179 
L 361.402485 80.877712 
L 362.053095 89.703183 
L 362.703706 88.690005 
L 363.354316 88.797571 
L 364.004926 77.368631 
L 365.306147 88.208524 
L 365.956757 82.339948 
L 366.607367 75.103587 
L 367.257978 75.961477 
L 367.908588 80.109204 
L 368.559198 80.090833 
L 369.209809 88.890393 
L 370.511029 81.79785 
L 371.16164 84.986368 
L 371.81225 73.329903 
L 372.46286 79.342439 
L 373.113471 78.082318 
L 374.414691 72.172133 
L 375.065302 73.250732 
L 375.715912 69.794486 
L 376.366522 61.833706 
L 377.017132 74.991495 
L 377.667743 66.663103 
L 378.318353 71.608782 
L 378.968963 82.22385 
L 379.619574 64.872709 
L 380.270184 69.025303 
L 380.920794 75.334498 
L 381.571405 61.007458 
L 382.222015 54.425652 
L 382.872625 66.372623 
L 383.523236 63.283572 
L 384.173846 62.473106 
L 384.824456 70.796179 
L 385.475066 68.27969 
L 386.125677 58.156781 
L 386.776287 69.548088 
L 387.426897 70.315598 
L 388.077508 65.055284 
L 388.728118 67.348453 
L 389.378728 67.331366 
L 390.029339 67.584582 
L 390.679949 56.245435 
L 391.330559 58.466592 
L 391.98117 66.763729 
L 392.63178 65.672521 
L 393.28239 67.493206 
L 393.933001 67.74713 
L 394.583611 65.184484 
L 395.234221 64.730177 
L 395.884831 56.677314 
L 396.535442 56.199787 
L 397.186052 59.053808 
L 397.836662 55.151231 
L 398.487273 53.568 
L 398.487273 53.568 
" style="fill:none;stroke:#ff7f0e;stroke-linecap:square;stroke-width:1.5;"/>
   </g>
   <g id="patch_3">
    <path d="M 57.6 307.584 
L 57.6 41.472 
" style="fill:none;stroke:#000000;stroke-linecap:square;stroke-linejoin:miter;stroke-width:0.8;"/>
   </g>
   <g id="patch_4">
    <path d="M 414.72 307.584 
L 414.72 41.472 
" style="fill:none;stroke:#000000;stroke-linecap:square;stroke-linejoin:miter;stroke-width:0.8;"/>
   </g>
   <g id="patch_5">
    <path d="M 57.6 307.584 
L 414.72 307.584 
" style="fill:none;stroke:#000000;stroke-linecap:square;stroke-linejoin:miter;stroke-width:0.8;"/>
   </g>
   <g id="patch_6">
    <path d="M 57.6 41.472 
L 414.72 41.472 
" style="fill:none;stroke:#000000;stroke-linecap:square;stroke-linejoin:miter;stroke-width:0.8;"/>
   </g>
   <g id="legend_1">
    <g id="patch_7">
     <path d="M 64.6 78.82825 
L 161.689062 78.82825 
Q 163.689062 78.82825 163.689062 76.82825 
L 163.689062 48.472 
Q 163.689062 46.472 161.689062 46.472 
L 64.6 46.472 
Q 62.6 46.472 62.6 48.472 
L 62.6 76.82825 
Q 62.6 78.82825 64.6 78.82825 
z
" style="fill:#ffffff;opacity:0.8;stroke:#cccccc;stroke-linejoin:miter;"/>
    </g>
    <g id="line2d_14">
     <path d="M 66.6 54.570437 
L 86.6 54.570437 
" style="fill:none;stroke:#1f77b4;stroke-linecap:square;stroke-width:1.5;"/>
    </g>
    <g id="line2d_15"/>
    <g id="text_14">
     <!-- Latency DDC -->
     <defs>
      <path d="M 19.671875 64.796875 
L 19.671875 8.109375 
L 31.59375 8.109375 
Q 46.6875 8.109375 53.6875 14.9375 
Q 60.6875 21.78125 60.6875 36.53125 
Q 60.6875 51.171875 53.6875 57.984375 
Q 46.6875 64.796875 31.59375 64.796875 
z
M 9.8125 72.90625 
L 30.078125 72.90625 
Q 51.265625 72.90625 61.171875 64.09375 
Q 71.09375 55.28125 71.09375 36.53125 
Q 71.09375 17.671875 61.125 8.828125 
Q 51.171875 0 30.078125 0 
L 9.8125 0 
z
" id="DejaVuSans-44"/>
      <path d="M 64.40625 67.28125 
L 64.40625 56.890625 
Q 59.421875 61.53125 53.78125 63.8125 
Q 48.140625 66.109375 41.796875 66.109375 
Q 29.296875 66.109375 22.65625 58.46875 
Q 16.015625 50.828125 16.015625 36.375 
Q 16.015625 21.96875 22.65625 14.328125 
Q 29.296875 6.6875 41.796875 6.6875 
Q 48.140625 6.6875 53.78125 8.984375 
Q 59.421875 11.28125 64.40625 15.921875 
L 64.40625 5.609375 
Q 59.234375 2.09375 53.4375 0.328125 
Q 47.65625 -1.421875 41.21875 -1.421875 
Q 24.65625 -1.421875 15.125 8.703125 
Q 5.609375 18.84375 5.609375 36.375 
Q 5.609375 53.953125 15.125 64.078125 
Q 24.65625 74.21875 41.21875 74.21875 
Q 47.75 74.21875 53.53125 72.484375 
Q 59.328125 70.75 64.40625 67.28125 
" id="DejaVuSans-43"/>
     </defs>
     <g transform="translate(94.6 58.070437)scale(0.1 -0.1)">
      <use xlink:href="#DejaVuSans-4c"/>
      <use x="55.712891" xlink:href="#DejaVuSans-61"/>
      <use x="116.992188" xlink:href="#DejaVuSans-74"/>
      <use x="156.201172" xlink:href="#DejaVuSans-65"/>
      <use x="217.724609" xlink:href="#DejaVuSans-6e"/>
      <use x="281.103516" xlink:href="#DejaVuSans-63"/>
      <use x="336.083984" xlink:href="#DejaVuSans-79"/>
      <use x="395.263672" xlink:href="#DejaVuSans-20"/>
      <use x="427.050781" xlink:href="#DejaVuSans-44"/>
      <use x="504.052734" xlink:href="#DejaVuSans-44"/>
      <use x="581.054688" xlink:href="#DejaVuSans-43"/>
     </g>
    </g>
    <g id="line2d_16">
     <path d="M 66.6 69.248562 
L 86.6 69.248562 
" style="fill:none;stroke:#ff7f0e;stroke-linecap:square;stroke-width:1.5;"/>
    </g>
    <g id="line2d_17"/>
    <g id="text_15">
     <!-- Latency TCP -->
     <defs>
      <path d="M -0.296875 72.90625 
L 61.375 72.90625 
L 61.375 64.59375 
L 35.5 64.59375 
L 35.5 0 
L 25.59375 0 
L 25.59375 64.59375 
L -0.296875 64.59375 
z
" id="DejaVuSans-54"/>
      <path d="M 19.671875 64.796875 
L 19.671875 37.40625 
L 32.078125 37.40625 
Q 38.96875 37.40625 42.71875 40.96875 
Q 46.484375 44.53125 46.484375 51.125 
Q 46.484375 57.671875 42.71875 61.234375 
Q 38.96875 64.796875 32.078125 64.796875 
z
M 9.8125 72.90625 
L 32.078125 72.90625 
Q 44.34375 72.90625 50.609375 67.359375 
Q 56.890625 61.8125 56.890625 51.125 
Q 56.890625 40.328125 50.609375 34.8125 
Q 44.34375 29.296875 32.078125 29.296875 
L 19.671875 29.296875 
L 19.671875 0 
L 9.8125 0 
z
" id="DejaVuSans-50"/>
     </defs>
     <g transform="translate(94.6 72.748562)scale(0.1 -0.1)">
      <use xlink:href="#DejaVuSans-4c"/>
      <use x="55.712891" xlink:href="#DejaVuSans-61"/>
      <use x="116.992188" xlink:href="#DejaVuSans-74"/>
      <use x="156.201172" xlink:href="#DejaVuSans-65"/>
      <use x="217.724609" xlink:href="#DejaVuSans-6e"/>
      <use x="281.103516" xlink:href="#DejaVuSans-63"/>
      <use x="336.083984" xlink:href="#DejaVuSans-79"/>
      <use x="395.263672" xlink:href="#DejaVuSans-20"/>
      <use x="427.050781" xlink:href="#DejaVuSans-54"/>
      <use x="488.056641" xlink:href="#DejaVuSans-43"/>
      <use x="557.880859" xlink:href="#DejaVuSans-50"/>
     </g>
    </g>
   </g>
  </g>
 </g>
 <defs>
  <clipPath id="pce03b03743">
   <rect height="266.112" width="357.12" x="57.6" y="41.472"/>
  </clipPath>
 </defs>
</svg>
